<?xml version="1.0" encoding="UTF-8" standalone="no"?> <svg id="Layer_1" data-name="Layer 1" xmlns="http://www.w3.org/2000/svg" viewBox="0 0 128 128"><defs><style>.cls-1{fill:#2d3e50;}.cls-2{fill:#2e79bd;}</style></defs><title>b</title><path class="cls-1" d="M63.08038,61.93789l-.3723.03819-.16863-.00639-.16863.00639-.37234-.03819c-.46771-.04457-.77-.09545-.93231-.1241L26.48125,55.72666V83.48942a41.6187,41.6187,0,0,1,6.4467-.4964c12.40016,0,23.30481,5.38076,29.57011,13.50752l.04138.01588.04134-.01588c6.26534-8.12676,17.17-13.50752,29.57015-13.50752a41.61815,41.61815,0,0,1,6.44666.4964V55.72666L64.01269,61.81379C63.8504,61.84244,63.54813,61.89332,63.08038,61.93789Z"/><path class="cls-2" d="M123.69329,59.753V44.41918l-.00668.0014c.00668-.07331.01452-.14632.01452-.22129a2.4774,2.4774,0,0,0-.11861-.76031.00681.00681,0,0,0-.00694-.007v-.00694a2.31463,2.31463,0,0,0-1.78564-1.55549L62.9335,31.51845a1.769,1.769,0,0,0-.39061-.03487h-.007a1.80783,1.80783,0,0,0-.39061.03487L3.28888,41.86957a2.31457,2.31457,0,0,0-1.78564,1.55549V43.432a.00684.00684,0,0,0-.007.007,2.47867,2.47867,0,0,0-.11857.76031A2.32876,2.32876,0,0,0,3.3028,46.515l18.13542,3.19459,6.98913,1.22764,33.68309,5.92889c.12555.02095.36966.03491.41849.04185h.0209c.04883-.00694.293-.0209.41854-.04185l33.683-5.92889,6.98913-1.22764,17.4239-3.06871.00362,13.06706L118.135,76.40684l.20708.07425a11.60341,11.60341,0,0,0,8.07321,0l.20708-.07425Z"/></svg>